<?xml version="1.0" standalone="no"?>
<!DOCTYPE svg PUBLIC "-//W3C//DTD SVG 20010904//EN"
 "http://www.w3.org/TR/2001/REC-SVG-20010904/DTD/svg10.dtd">
<svg version="1.0" xmlns="http://www.w3.org/2000/svg"
 width="225.000000pt" height="225.000000pt" viewBox="0 0 225.000000 225.000000"
 preserveAspectRatio="xMidYMid meet">
<metadata>
Created by potrace 1.14, written by Peter Selinger 2001-2017
</metadata>
<g transform="translate(0.000000,225.000000) scale(0.100000,-0.100000)"
fill="#000000" stroke="none">
<path d="M935 1494 c-104 -58 -193 -108 -197 -112 -6 -6 370 -232 386 -232 4
0 385 218 394 225 2 2 -72 44 -165 95 -92 51 -181 101 -198 110 l-30 18 -190
-104z"/>
<path d="M1348 1213 l-198 -115 0 -210 c0 -120 4 -208 9 -206 5 2 95 50 200
108 l191 105 0 218 c0 119 -1 217 -2 216 -2 -1 -92 -53 -200 -116z"/>
<path d="M700 1107 l0 -213 195 -107 c107 -59 197 -107 200 -107 3 0 5 94 5
208 l0 208 -194 112 c-107 62 -197 112 -200 112 -4 0 -6 -96 -6 -213z"/>
</g>
</svg>
